<mxfile host="app.diagrams.net" modified="2023-06-02T06:55:46.545Z" agent="Mozilla/5.0 (Windows NT 10.0; Win64; x64) AppleWebKit/537.36 (KHTML, like Gecko) Chrome/113.0.0.0 Safari/537.36" version="21.3.7" etag="2zfapG4eeN60VmKXn0yH" type="github">
  <diagram name="Page-1" id="G3SJ5edkOHju1m7-QHji">
    <mxGraphModel>
      <root>
        <mxCell id="0" />
        <mxCell id="1" parent="0" />
      </root>
    </mxGraphModel>
  </diagram>
</mxfile>
